<svg width="353" height="46" viewBox="0 0 353 46" fill="none" xmlns="http://www.w3.org/2000/svg">
<path d="M90.4199 13.7955C88.762 13.7955 87.4224 14.2239 86.4011 15.0808C85.3799 15.9241 84.8692 17.0191 84.8692 18.3656C84.8692 19.6986 85.3467 20.7323 86.3017 21.4668C87.2566 22.2013 89.2129 23.0718 92.1706 24.0784C95.1283 25.0849 97.204 26.1322 98.3977 27.2204C99.6047 28.2949 100.208 29.8863 100.208 31.9946C100.208 34.1029 99.4588 35.7011 97.96 36.7892C96.4613 37.8638 94.6509 38.401 92.5287 38.401C88.2315 38.401 84.6504 37.0817 81.7855 34.4429L82.6808 33.0147C85.3997 35.463 88.5763 36.6872 92.2104 36.6872C96.2822 36.6872 98.3181 35.089 98.3181 31.8926C98.3181 30.3284 97.8208 29.1382 96.826 28.3221C95.8445 27.4924 94.2065 26.6899 91.912 25.9146C89.6307 25.1393 88.0988 24.5884 87.3163 24.262C86.5338 23.922 85.7579 23.4731 84.9886 22.9154C84.2326 22.3578 83.7087 21.7185 83.4169 20.9976C83.1384 20.2631 82.9991 19.3518 82.9991 18.2636C82.9991 16.4546 83.6755 14.9788 85.0284 13.8363C86.3945 12.6937 88.1917 12.1224 90.4199 12.1224C93.6163 12.136 96.5475 12.8365 99.2134 14.2239L98.6166 15.7133C96.1231 14.4347 93.3908 13.7955 90.4199 13.7955Z" fill="#181E22"/>
<path d="M119.824 38.0338H104.764V36.4016H112.006V14.8768C109.751 15.9105 107.417 16.7062 105.003 17.2639L104.585 16.0193C107.569 15.0944 110.182 13.9383 112.424 12.5509H113.796V36.4016H119.824V38.0338Z" fill="#181E22"/>
<path d="M143.221 27.71C148.513 27.71 151.132 25.4794 151.079 21.018C151.079 16.5294 148.447 14.2919 143.181 14.3055H137.312V27.71H143.221ZM135.482 12.5509H143.181C149.64 12.5645 152.87 15.3869 152.87 21.018C152.87 26.6491 149.667 29.4647 143.261 29.4647H137.312V38.0338H135.482V12.5509Z" fill="#181E22"/>
<path d="M159.375 18.6513V23.0378C159.787 21.6505 160.569 20.5079 161.723 19.6102C162.877 18.7125 164.018 18.2636 165.145 18.2636C166.272 18.2636 167.201 18.3044 167.93 18.386L167.771 20.1407C167.121 20.0863 166.345 20.0591 165.443 20.0591C164.064 20.0591 162.844 20.5487 161.783 21.528C160.722 22.5074 159.919 23.9152 159.375 25.7514V38.0338H157.585V18.6513H159.375Z" fill="#181E22"/>
<path d="M178.455 36.83C180.815 36.83 182.666 36.0955 184.005 34.6265C185.332 33.1712 185.995 31.1105 185.995 28.4445C185.995 25.7786 185.332 23.6839 184.005 22.1605C182.679 20.6371 180.835 19.8686 178.474 19.855C176.114 19.855 174.277 20.6235 172.964 22.1605C171.624 23.6839 170.954 25.7786 170.954 28.4445C170.954 31.1105 171.617 33.178 172.944 34.6469C174.27 36.1159 176.107 36.8436 178.455 36.83ZM171.69 20.9772C173.322 19.1681 175.59 18.2636 178.494 18.2636C181.399 18.2636 183.667 19.1681 185.298 20.9772C186.93 22.7726 187.745 25.2481 187.745 28.4037C187.745 31.5593 186.923 34.0145 185.279 35.7691C183.634 37.5237 181.366 38.401 178.474 38.401C175.583 38.401 173.322 37.5237 171.69 35.7691C170.059 34.0145 169.243 31.5593 169.243 28.4037C169.243 25.2481 170.059 22.7726 171.69 20.9772Z" fill="#181E22"/>
<path d="M199.682 28.975V36.4016H198.25V28.975H191.028V27.506H198.25V20.0183L199.682 20.0591V27.506H206.964V28.975H199.682Z" fill="#181E22"/>
<path d="M57.2417 24.5773L63.9597 37.4993H70.5306L57.2417 11.9027L43.9528 37.4993H50.5604L57.2417 24.5773Z" fill="white"/>
<path d="M57.2417 24.5773L63.9597 37.4993H70.5306L57.2417 11.9027L43.9528 37.4993H50.5604L57.2417 24.5773Z" fill="#212121"/>
<path d="M35.4309 31.5046L35.4493 11.8647H29.6332V37.4993H40.8422L43.9528 31.5046H35.4309Z" fill="white"/>
<path d="M35.4309 31.5046L35.4493 11.8647H29.6332V37.4993H40.8422L43.9528 31.5046H35.4309Z" fill="#212121"/>
<path d="M13.3073 10.9512C10.6782 10.9474 8.10716 11.7501 5.91939 13.2576C3.73162 14.7651 2.02548 16.9097 1.01685 19.4201C0.00822566 21.9305 -0.257566 24.6938 0.253108 27.3604C0.763783 30.0271 2.02797 32.4771 3.88573 34.4007C5.74348 36.3242 8.1113 37.6347 10.6896 38.1664C13.2679 38.6982 15.9408 38.4272 18.3701 37.3878C20.7994 36.3483 22.8759 34.5872 24.3369 32.3272C25.798 30.0672 26.5778 27.4099 26.5778 24.6915C26.5778 21.0507 25.1803 17.5586 22.6921 14.9824C20.2039 12.4061 16.8286 10.9562 13.3073 10.9512ZM13.3073 32.0946C11.8905 32.0983 10.5044 31.6674 9.32453 30.8562C8.14469 30.045 7.22414 28.8901 6.6794 27.5378C6.13467 26.1854 5.99025 24.6963 6.26443 23.259C6.53862 21.8217 7.21907 20.5008 8.21965 19.4636C9.22023 18.4263 10.4959 17.7194 11.8853 17.4322C13.2747 17.145 14.7152 17.2905 16.0246 17.8502C17.3339 18.41 18.4532 19.3588 19.2408 20.5766C20.0283 21.7945 20.4487 23.2265 20.4487 24.6915C20.4439 26.6534 19.688 28.5335 18.3463 29.9207C17.0046 31.308 15.1863 32.0895 13.2889 32.0946H13.3073Z" fill="white"/>
<path d="M13.3073 10.9512C10.6782 10.9474 8.10716 11.7501 5.91939 13.2576C3.73162 14.7651 2.02548 16.9097 1.01685 19.4201C0.00822566 21.9305 -0.257566 24.6938 0.253108 27.3604C0.763783 30.0271 2.02797 32.4771 3.88573 34.4007C5.74348 36.3242 8.1113 37.6347 10.6896 38.1664C13.2679 38.6982 15.9408 38.4272 18.3701 37.3878C20.7994 36.3483 22.8759 34.5872 24.3369 32.3272C25.798 30.0672 26.5778 27.4099 26.5778 24.6915C26.5778 21.0507 25.1803 17.5586 22.6921 14.9824C20.2039 12.4061 16.8286 10.9562 13.3073 10.9512ZM13.3073 32.0946C11.8905 32.0983 10.5044 31.6674 9.32453 30.8562C8.14469 30.045 7.22414 28.8901 6.6794 27.5378C6.13467 26.1854 5.99025 24.6963 6.26443 23.259C6.53862 21.8217 7.21907 20.5008 8.21965 19.4636C9.22023 18.4263 10.4959 17.7194 11.8853 17.4322C13.2747 17.145 14.7152 17.2905 16.0246 17.8502C17.3339 18.41 18.4532 19.3588 19.2408 20.5766C20.0283 21.7945 20.4487 23.2265 20.4487 24.6915C20.4439 26.6534 19.688 28.5335 18.3463 29.9207C17.0046 31.308 15.1863 32.0895 13.2889 32.0946H13.3073Z" fill="#212121"/>
<path d="M230.273 39.3812C226.276 39.3812 222.796 38.5199 219.831 36.7972L221.038 34.7004C223.876 36.1971 227.018 36.9526 230.463 36.9667C232.454 36.9667 234.127 36.5007 235.483 35.5688C236.824 34.6368 237.608 33.3519 237.834 31.7139C238.06 30.076 237.587 28.8193 236.415 27.9438C235.243 27.0825 233.485 26.6448 231.141 26.6306H227.244L227.625 24.0678H231.501C236.005 24.0678 238.476 22.5993 238.914 19.6623C239.126 18.1232 238.766 16.9018 237.834 15.9981C236.902 15.0944 235.568 14.6355 233.831 14.6213C230.682 14.6213 227.399 15.3415 223.982 16.7817L223.516 14.7484C227.131 13.0681 230.675 12.228 234.149 12.228C236.69 12.228 238.639 12.8916 239.994 14.2189C241.35 15.5462 241.886 17.3113 241.604 19.514C241.166 22.4652 239.331 24.4208 236.097 25.381C239.627 26.3694 241.145 28.551 240.651 31.9257C240.326 34.2132 239.225 36.0277 237.347 37.3691C235.469 38.7105 233.111 39.3812 230.273 39.3812ZM250.97 12.6095C251.563 12.6095 252.084 12.6349 252.533 12.6857L252.165 14.3759C251.766 14.342 251.283 14.3251 250.716 14.3251C249.14 14.3251 247.742 15.3078 246.522 17.2734L245.455 25H243.714L245.429 12.8255H247.145L246.84 15.0621C247.984 13.427 249.36 12.6095 250.97 12.6095ZM258.207 23.6783C258.986 23.6783 259.693 23.5174 260.329 23.1954C260.964 22.8735 261.706 22.3652 262.553 21.6704L263.366 15.8882C262.061 14.6767 260.723 14.0709 259.35 14.0709C256.868 14.0709 255.411 15.6849 254.979 18.9127C254.75 20.5818 254.949 21.7933 255.576 22.5473C256.203 23.3013 257.08 23.6783 258.207 23.6783ZM255.322 14.0963C256.381 13.0881 257.69 12.584 259.249 12.584C260.808 12.584 262.248 13.2025 263.569 14.4394L264.484 7.95824H266.225L263.824 25H262.083L262.324 23.3352C261.451 24.0299 260.702 24.5213 260.075 24.8094C259.448 25.0974 258.677 25.2372 257.762 25.2287C256.271 25.2287 255.076 24.7035 254.178 23.6529C253.28 22.6024 252.983 21.0011 253.288 18.8492C253.593 16.6888 254.271 15.1045 255.322 14.0963ZM284.963 15.7015C287.491 13.3011 290.689 12.1009 294.558 12.1009C298.441 12.1009 301.801 12.8139 304.64 14.2401L303.39 16.6547C300.637 15.4686 297.7 14.8755 294.579 14.8755C291.458 14.8755 288.917 15.8286 286.954 17.7349C285.005 19.627 283.784 22.3169 283.29 25.8046C282.796 29.2782 283.198 31.9469 284.497 33.8108C285.81 35.6747 287.879 36.6066 290.703 36.6066C294.431 36.6066 297.629 35.7735 300.298 34.1073L301.124 28.3251H291.275L291.677 25.5928H304.343L302.945 35.6959C298.893 38.1528 294.671 39.3812 290.279 39.3812C286.552 39.3812 283.798 38.1951 282.019 35.8229C280.24 33.4366 279.654 30.0901 280.261 25.7834C280.868 21.4626 282.436 18.102 284.963 15.7015ZM318.788 20.6578C314.707 20.6578 312.116 22.8817 311.015 27.3296H324.126C324.323 25.0986 323.949 23.4324 323.003 22.331C322.071 21.2155 320.666 20.6578 318.788 20.6578ZM311.672 20.9543C313.606 19.1893 315.999 18.3067 318.852 18.3067C321.704 18.3067 323.794 19.1398 325.121 20.806C326.448 22.4722 326.943 24.9362 326.604 28.198C326.463 28.9464 326.357 29.4265 326.286 29.6383H310.634C310.408 32.1799 310.846 34.0508 311.947 35.2511C313.062 36.4513 314.609 37.0514 316.585 37.0514C319.367 37.0514 321.923 36.183 324.253 34.4462L324.994 36.183C322.368 38.3293 319.522 39.3954 316.458 39.3812C313.408 39.3812 311.121 38.4422 309.596 36.5643C308.085 34.6863 307.57 32.0599 308.05 28.6851C308.53 25.2963 309.737 22.7193 311.672 20.9543ZM343.548 18.3491C345.751 18.3491 347.375 19.0481 348.42 20.446C349.479 21.8297 349.817 23.8066 349.436 26.3765L347.657 39H344.755L346.577 26.673C346.859 24.555 346.711 23.037 346.132 22.1192C345.567 21.2014 344.459 20.7425 342.807 20.7425C340.576 20.7425 338.013 21.9145 335.118 24.2584L333.043 39H330.183L333 18.7092H335.902L335.521 21.5262C336.933 20.3965 338.253 19.5846 339.481 19.0904C340.724 18.5962 342.08 18.3491 343.548 18.3491Z" fill="url(#paint0_linear_26905_3662)"/>
<defs>
<linearGradient id="paint0_linear_26905_3662" x1="286.5" y1="46" x2="286.5" y2="5.56452" gradientUnits="userSpaceOnUse">
<stop stop-color="#16AA51" stop-opacity="0"/>
<stop offset="0.376761" stop-color="#16AA51"/>
</linearGradient>
</defs>
</svg>
